<?xml version="1.0" standalone="no"?>
<!DOCTYPE svg PUBLIC "-//W3C//DTD SVG 20010904//EN"
 "http://www.w3.org/TR/2001/REC-SVG-20010904/DTD/svg10.dtd">
<svg version="1.0" xmlns="http://www.w3.org/2000/svg"
 width="900.000000pt" height="900.000000pt" viewBox="0 0 900.000000 900.000000"
 preserveAspectRatio="xMidYMid meet">
<metadata>
Created by potrace 1.10, written by Peter Selinger 2001-2011
</metadata>
<g transform="translate(0.000000,900.000000) scale(0.100000,-0.100000)"
fill="#01c988" stroke="none">
<path d="M3223 4942 c-244 -245 -443 -449 -443 -453 0 -3 189 -195 421 -425
231 -231 427 -431 435 -446 21 -40 68 -39 88 1 9 16 54 65 102 109 l86 81
-303 306 c-167 168 -321 317 -341 332 -21 14 -38 29 -38 33 0 7 606 611 655
653 l30 25 -91 89 c-50 48 -99 100 -108 116 -10 15 -26 26 -35 26 -9 -1 -215
-202 -458 -447z m500 247 c16 -23 17 -30 7 -50 -7 -13 -108 -121 -225 -239
-243 -248 -310 -324 -326 -380 -23 -76 8 -118 321 -435 125 -126 230 -240 234
-253 11 -35 -17 -72 -55 -72 -26 0 -70 39 -322 285 -161 157 -318 315 -349
351 -97 109 -111 84 245 442 166 167 324 322 351 344 57 45 89 47 119 7z"/>
<path d="M5214 5327 c-32 -34 -85 -85 -118 -112 l-58 -51 48 -44 c82 -76 628
-614 638 -629 6 -10 1 -20 -20 -35 -16 -11 -171 -160 -345 -330 l-316 -311 89
-84 c49 -46 95 -96 104 -112 20 -40 67 -41 88 -1 18 33 792 805 824 821 17 9
22 20 22 51 0 33 -5 42 -27 54 -16 8 -214 201 -442 430 -228 229 -417 416
-421 416 -3 0 -33 -28 -66 -63z m448 -455 c272 -271 358 -364 358 -382 0 -18
-83 -108 -342 -368 -314 -314 -377 -372 -408 -372 -21 0 -50 41 -50 71 0 26
34 65 264 297 249 252 306 322 306 369 0 50 -73 138 -310 378 -136 138 -253
260 -259 273 -7 12 -9 28 -5 35 17 30 49 57 68 57 14 0 138 -117 378 -358z"/>
<path d="M4804 5328 c-20 -24 -109 -88 -123 -88 -17 0 -191 -180 -191 -197 0
-3 -18 -32 -40 -64 -55 -81 -86 -158 -114 -281 -5 -22 -13 -28 -44 -33 -62
-10 -154 -53 -202 -94 -51 -44 -97 -128 -130 -238 -16 -53 -19 -76 -11 -91 10
-19 12 -19 71 9 33 16 68 29 79 29 10 0 38 7 61 15 26 9 78 15 135 15 80 0
103 -4 171 -31 44 -17 84 -38 90 -45 6 -8 15 -14 20 -14 15 -1 59 -43 84 -80
13 -19 27 -37 32 -40 11 -8 58 -137 58 -160 0 -10 5 -22 11 -26 27 -16 109
131 128 231 13 72 -5 179 -44 261 -14 28 -25 56 -25 62 0 6 -8 15 -17 20 -15
9 -15 14 9 60 14 27 29 65 33 83 4 19 11 39 16 45 5 6 14 33 20 60 5 27 14 67
19 89 15 64 11 254 -5 300 -8 22 -15 48 -15 58 0 11 -7 33 -15 50 -8 18 -15
50 -17 71 -4 47 -19 55 -44 24z m-17 -218 c15 -29 18 -207 4 -229 -7 -11 -18
-9 -58 16 -26 16 -69 37 -95 47 -60 22 -62 44 -12 110 64 84 135 109 161 56z
m-99 -280 c40 -29 42 -32 42 -83 0 -45 -4 -57 -27 -79 -51 -48 -96 -54 -161
-19 -40 21 -52 42 -52 87 0 36 6 51 36 84 32 35 42 40 79 40 31 0 53 -8 83
-30z m-239 -204 c15 -8 34 -22 41 -31 27 -33 87 -55 150 -55 40 0 62 -4 64
-12 2 -7 16 -49 30 -93 61 -186 68 -245 28 -245 -9 0 -39 21 -67 45 -64 58
-143 110 -208 137 -44 18 -74 22 -197 24 -80 1 -151 3 -157 3 -23 2 -13 40 20
77 19 22 61 51 102 70 39 18 88 46 109 63 44 35 47 36 85 17z"/>
<path d="M4243 4208 c-69 -77 -149 -338 -104 -338 13 0 58 54 74 90 61 136 94
270 65 270 -8 0 -24 -10 -35 -22z"/>
<path d="M4376 4138 c-38 -61 -96 -182 -96 -201 0 -7 -6 -21 -14 -32 -12 -19
-31 -93 -43 -176 -10 -69 30 -62 80 14 48 75 74 142 112 290 31 127 32 157 4
157 -5 0 -24 -24 -43 -52z"/>
<path d="M4538 4113 c-25 -30 -66 -111 -73 -145 -10 -45 -54 -198 -60 -208
-11 -17 17 -21 35 -5 25 23 90 130 90 148 0 9 5 19 10 22 6 3 10 21 10 38 1
18 7 43 15 57 19 33 20 110 2 110 -8 0 -21 -8 -29 -17z"/>
<path d="M2957 3374 c-9 -9 4 -67 19 -85 19 -21 18 -73 -1 -89 -9 -7 -15 -29
-15 -53 l0 -40 46 7 c26 3 60 6 76 6 l30 0 -7 74 c-5 49 -3 86 5 111 15 45 30
31 30 -28 0 -58 24 -42 28 19 2 46 0 50 -29 67 -30 17 -167 25 -182 11z"/>
<path d="M3322 3351 c-29 -27 -32 -35 -32 -88 0 -58 12 -88 54 -129 15 -15 32
-18 90 -16 43 2 84 9 104 20 29 15 32 21 32 63 0 42 -3 48 -26 53 -24 6 -94
-2 -94 -10 0 -2 6 -13 12 -24 9 -14 9 -23 2 -30 -16 -16 -60 5 -67 32 -15 58
26 98 80 77 14 -5 39 -7 54 -4 22 5 29 2 34 -14 10 -32 25 -25 25 12 0 22 -9
40 -29 60 -27 25 -35 27 -118 27 -84 0 -90 -1 -121 -29z"/>
<path d="M3675 3370 c-7 -12 4 -60 21 -85 19 -26 18 -70 -2 -85 -10 -9 -14
-26 -12 -49 l3 -36 70 3 c39 2 73 7 77 10 3 4 0 25 -7 46 -16 45 -12 56 16 56
29 0 23 20 -11 31 -19 7 -30 18 -30 30 0 23 25 35 43 21 6 -6 28 -12 47 -14
l35 -3 3 -56 c2 -41 -1 -59 -13 -69 -20 -17 -19 -47 3 -52 9 -2 38 -2 65 0 45
4 47 5 47 34 0 36 19 33 38 -5 12 -24 19 -27 63 -27 58 0 61 10 18 59 l-30 35
24 20 c48 42 51 52 27 86 l-21 30 -124 0 c-100 0 -124 3 -129 15 -4 12 -26 15
-110 15 -58 0 -107 -4 -111 -10z m400 -95 c0 -23 -4 -30 -20 -30 -21 0 -31 25
-21 51 11 28 41 12 41 -21z"/>
<path d="M4285 3358 c-36 -13 -65 -36 -65 -53 0 -7 -6 -17 -13 -23 -24 -21 -8
-88 32 -132 l36 -40 73 6 c63 6 78 11 103 36 25 26 29 37 29 86 0 68 -20 99
-76 118 -46 16 -77 16 -119 2z m101 -100 c14 -27 14 -32 -1 -54 -20 -32 -60
-32 -80 0 -20 30 -10 75 19 85 29 11 44 4 62 -31z"/>
<path d="M4853 3353 l-153 -4 0 -25 c0 -13 7 -27 15 -30 18 -7 20 -64 2 -64
-14 0 -33 27 -59 83 l-17 37 -66 0 c-77 0 -88 -13 -54 -59 17 -23 21 -38 16
-71 -3 -23 -12 -49 -21 -59 -22 -24 -20 -38 5 -44 30 -8 89 4 89 17 0 7 -7 21
-15 32 -16 21 -20 60 -7 68 11 7 41 -29 66 -77 l19 -37 69 0 c57 0 68 3 68 17
0 9 -6 24 -14 32 -15 17 -19 38 -17 84 1 30 28 48 41 27 7 -11 11 -11 24 -1
41 34 62 -32 31 -93 -30 -57 -23 -66 54 -66 39 0 72 3 74 8 3 4 -1 25 -8 47
-7 22 -16 55 -19 74 l-6 34 44 -6 c34 -5 45 -3 50 8 3 8 12 15 21 15 8 0 15 5
15 10 0 6 -4 10 -10 10 -5 0 -19 9 -30 20 -11 11 -28 19 -37 18 -10 -1 -87 -4
-170 -5z"/>
<path d="M5193 3354 c-20 -9 -15 -48 7 -67 27 -22 26 -76 -1 -111 -11 -14 -19
-34 -17 -44 3 -16 18 -17 173 -13 94 1 173 5 177 7 8 5 -1 36 -13 44 -7 5 -12
27 -10 48 2 18 31 15 38 -5 4 -10 10 -20 13 -23 4 -3 13 -18 21 -35 13 -28 18
-30 82 -33 75 -3 79 1 46 54 -23 39 -19 92 11 119 17 16 20 15 39 -4 27 -27
27 -76 1 -119 -11 -18 -18 -37 -15 -43 4 -5 51 -9 106 -9 104 0 134 9 170 53
13 16 17 17 22 5 6 -17 -37 -68 -57 -68 -8 0 -17 -7 -20 -16 -5 -13 -34 -15
-213 -14 -501 3 -563 1 -563 -15 0 -8 10 -17 23 -20 12 -3 186 -3 387 -2 391
4 381 3 447 58 38 32 46 56 38 113 -6 35 -17 55 -52 90 l-45 46 -179 -1 c-168
0 -179 -1 -179 -19 0 -10 8 -32 17 -49 14 -24 15 -33 6 -42 -18 -18 -45 10
-69 66 l-18 45 -152 0 c-83 0 -164 2 -180 5 -16 2 -35 2 -41 -1z m220 -69 c25
33 47 12 47 -44 0 -27 -3 -56 -6 -65 -8 -20 -44 -21 -44 -1 0 9 -9 15 -25 15
-14 0 -25 -4 -25 -10 0 -15 -37 -12 -43 3 -6 17 3 32 26 40 20 8 23 27 3 27
-7 0 -19 6 -25 14 -21 25 18 38 51 18 26 -15 29 -15 41 3z m522 -45 c0 -38 -4
-46 -28 -60 -24 -13 -29 -13 -37 0 -11 17 -13 93 -3 104 4 4 21 6 38 4 28 -3
30 -5 30 -48z"/>
<path d="M5088 3263 c-10 -2 -18 -11 -18 -19 0 -10 13 -14 50 -14 36 0 50 4
50 14 0 20 -41 30 -82 19z"/>
<path d="M3164 3193 c-6 -5 -10 -21 -9 -38 2 -35 35 -52 79 -41 24 6 27 11 24
44 -3 36 -5 37 -43 40 -22 1 -45 -1 -51 -5z"/>
<path d="M5090 3185 c0 -21 27 -30 45 -15 19 16 10 30 -21 30 -15 0 -24 -6
-24 -15z"/>
<path d="M5030 3126 c0 -49 7 -48 -349 -46 -100 1 -158 -3 -165 -10 -8 -8 -7
-13 2 -19 15 -9 470 -13 515 -5 25 5 27 9 27 60 0 41 -4 54 -15 54 -10 0 -15
-10 -15 -34z"/>
<path d="M3564 3121 c-18 -11 -35 -24 -38 -30 -4 -6 -37 -11 -76 -11 -63 0
-92 -11 -75 -28 4 -4 39 -7 78 -7 95 0 147 23 147 65 0 17 -1 30 -2 30 -2 0
-17 -9 -34 -19z"/>
<path d="M4422 3095 c-8 -10 -33 -15 -72 -15 -66 0 -86 -14 -43 -31 62 -24
181 13 159 50 -10 15 -28 13 -44 -4z"/>
<path d="M3275 3090 c-11 -5 -86 -9 -167 -9 -122 -1 -148 -4 -148 -15 0 -22
23 -25 180 -25 152 1 180 7 180 39 0 21 -13 24 -45 10z"/>
<path d="M4190 3090 c-8 -5 -72 -10 -142 -10 -82 0 -129 -4 -134 -11 -13 -22
22 -28 153 -27 138 0 172 9 160 42 -7 18 -16 20 -37 6z"/>
<path d="M3765 3083 c-89 -4 -101 -8 -85 -28 9 -11 34 -15 92 -15 89 0 127 12
107 36 -6 8 -19 13 -28 12 -9 -1 -47 -3 -86 -5z"/>
</g>
</svg>
