<?xml version="1.0" standalone="no"?>
<!DOCTYPE svg PUBLIC "-//W3C//DTD SVG 20010904//EN"
 "http://www.w3.org/TR/2001/REC-SVG-20010904/DTD/svg10.dtd">
<svg version="1.0" xmlns="http://www.w3.org/2000/svg"
 width="300.000000pt" height="300.000000pt" viewBox="0 0 300.000000 300.000000"
 preserveAspectRatio="xMidYMid meet">
<metadata>
Created by potrace 1.10, written by Peter Selinger 2001-2011
</metadata>
<g transform="translate(0.000000,300.000000) scale(0.100000,-0.100000)"
fill="#02c988" stroke="none">
<path d="M1080 1645 l-145 -145 147 -147 147 -147 31 29 c16 16 30 33 30 39 0
6 -48 59 -107 118 l-108 108 108 108 c59 59 107 112 107 118 0 10 -51 64 -61
64 -2 0 -69 -65 -149 -145z"/>
<path d="M1730 1755 l-34 -35 109 -110 110 -110 -108 -108 c-59 -59 -107 -112
-107 -118 0 -6 14 -23 30 -39 l30 -29 149 145 c81 79 148 146 148 149 0 3 -66
69 -146 148 l-147 142 -34 -35z"/>
<path d="M1572 1745 c-51 -35 -66 -55 -100 -126 -25 -53 -37 -67 -66 -77 -36
-13 -61 -43 -72 -87 -6 -26 -6 -26 37 -20 81 13 88 12 130 -7 45 -20 63 -37
83 -81 l13 -29 16 35 c21 43 21 55 2 110 -13 37 -13 49 0 91 17 56 20 182 5
191 -6 4 -8 11 -5 16 10 16 -9 9 -43 -16z m-11 -125 c23 -13 25 -52 4 -70 -38
-31 -88 33 -53 68 15 15 24 15 49 2z"/>
<path d="M1404 1365 c-16 -40 -19 -69 -3 -42 13 23 29 77 23 77 -3 0 -12 -16
-20 -35z"/>
<path d="M1445 1339 c-10 -18 -19 -46 -22 -63 l-4 -31 20 25 c21 25 38 86 28
96 -3 3 -13 -9 -22 -27z"/>
<path d="M1500 1331 c-12 -24 -13 -44 -1 -37 8 5 22 56 15 56 -2 0 -8 -9 -14
-19z"/>
</g>
</svg>
